<?xml version="1.0" standalone="no"?>
<!DOCTYPE svg PUBLIC "-//W3C//DTD SVG 20010904//EN"
 "http://www.w3.org/TR/2001/REC-SVG-20010904/DTD/svg10.dtd">
<svg version="1.0" xmlns="http://www.w3.org/2000/svg"
 width="100.000000pt" height="100.000000pt" viewBox="0 0 100.000000 100.000000"
 preserveAspectRatio="xMidYMid meet">
<metadata>
Created by potrace 1.11, written by Peter Selinger 2001-2013
</metadata>
<g transform="translate(0.000000,100.000000) scale(0.100000,-0.100000)"
fill="#000000" stroke="none">
<path d="M0 940 c0 -57 1 -60 32 -76 24 -13 47 -15 96 -11 l64 6 -40 -43
c-222 -241 -184 -602 83 -786 l44 -30 241 0 241 0 47 32 c62 42 115 100 158
169 l34 57 0 195 0 196 -32 58 c-17 32 -51 78 -74 102 -24 25 -41 48 -38 53 3
4 22 8 43 8 21 0 52 5 70 11 30 10 31 13 31 65 l0 54 -122 0 c-82 0 -137 -5
-163 -15 -52 -18 -135 -18 -159 0 -26 20 -77 20 -70 1 8 -20 -89 -32 -140 -17
-37 10 -38 9 -32 -13 5 -20 -2 -27 -43 -50 -62 -33 -67 -33 -41 4 12 17 25 44
30 60 l9 30 -135 0 -134 0 0 -60z m760 21 c0 -5 13 -23 29 -40 34 -36 29 -38
-33 -11 -50 23 -56 33 -28 49 21 13 32 14 32 2z m-146 -272 c-3 -5 -12 -9 -20
-9 -8 0 -14 -4 -14 -10 0 -5 -8 -10 -17 -9 -11 0 -13 3 -5 6 6 2 12 9 12 14 0
6 -5 7 -11 3 -8 -5 -8 -1 0 14 6 11 16 22 23 25 15 5 40 -22 32 -34z m-119
-54 c5 -42 12 -65 19 -62 6 2 13 14 14 27 3 16 6 19 12 11 4 -7 19 -14 34 -14
29 -2 34 -12 11 -21 -8 -3 -15 -13 -15 -21 0 -9 5 -13 10 -10 6 3 10 0 10 -7
0 -9 14 -14 41 -15 35 -2 39 0 28 13 -16 19 -21 64 -8 64 6 0 7 -4 4 -10 -3
-5 -1 -10 4 -10 6 0 11 -8 11 -17 1 -13 5 -10 16 10 16 30 27 37 17 10 -4 -11
-3 -14 6 -9 6 4 11 4 10 -1 -8 -44 15 -58 26 -15 l7 27 12 -30 c20 -47 27 -85
17 -85 -5 0 -11 10 -13 22 -4 31 -29 33 -59 7 -29 -26 -117 -69 -141 -69 -25
0 -22 -9 11 -40 60 -58 149 -43 179 30 10 22 20 40 23 40 10 0 -16 -135 -31
-156 -16 -23 -101 -71 -161 -92 -80 -27 -198 -3 -267 55 -30 25 -35 36 -44
103 -6 41 -11 86 -12 100 0 14 -4 27 -7 30 -3 3 -1 20 5 39 l12 34 12 -42 c7
-22 17 -41 21 -41 5 0 11 21 15 48 4 26 18 67 31 92 l24 45 -6 -72 c-6 -79 6
-97 27 -40 18 49 32 77 63 125 17 25 26 10 32 -53z m364 -169 c5 -22 6 -35 2
-30 -9 9 -27 83 -18 74 3 -3 10 -23 16 -44z m-119 -6 c0 -37 -39 -80 -72 -80
-13 1 -36 7 -53 14 -26 12 -27 15 -12 21 11 5 25 1 38 -11 23 -21 51 -10 58
22 3 16 0 15 -16 -5 -11 -14 -25 -21 -31 -17 -19 11 -14 26 8 26 10 0 24 8 29
18 6 9 11 13 11 7 0 -5 7 1 16 13 20 29 24 28 24 -8z m94 -28 c-2 -32 -28 -69
-38 -53 -4 5 1 17 10 26 12 11 14 19 6 27 -13 13 -4 40 12 35 6 -2 10 -18 10
-35z m-630 -6 c-3 -9 -10 -13 -15 -10 -5 3 -3 11 4 19 15 16 19 13 11 -9z m58
-11 c4 -21 1 -25 -18 -25 -27 0 -28 3 -14 31 14 26 27 24 32 -6z m-62 -25 c0
-5 -2 -10 -4 -10 -3 0 -8 5 -11 10 -3 6 -1 10 4 10 6 0 11 -4 11 -10z m68 -37
c4 -31 -12 -29 -33 3 -16 25 -16 26 7 22 15 -2 24 -11 26 -25z m560 -15 c-3
-7 -10 -14 -16 -14 -25 -3 -27 -5 -13 -13 8 -5 10 -14 6 -22 -6 -9 -11 -6 -17
12 -7 18 -5 27 8 36 23 16 37 17 32 1z m-529 -67 c29 -29 62 -52 81 -56 32 -7
32 -7 11 -26 -30 -28 -47 -23 -43 12 1 4 -7 6 -16 6 -38 0 -44 3 -38 19 5 12
2 15 -9 10 -11 -4 -20 4 -30 27 -7 17 -11 36 -7 41 3 5 -2 7 -11 3 -10 -3 -17
-2 -17 3 0 23 34 6 79 -39z m491 -3 c0 -5 -8 -8 -17 -8 -13 0 -15 -3 -5 -8 9
-6 -2 -18 -35 -42 -27 -19 -41 -26 -33 -15 13 16 13 18 0 13 -8 -3 -15 -15
-14 -27 1 -20 -1 -20 -18 -4 -26 24 -22 40 13 52 40 14 39 14 33 -4 -4 -8 -2
-15 4 -15 6 0 9 8 7 18 -4 24 46 76 57 60 4 -7 8 -16 8 -20z m-340 -100 c0
-19 2 -20 10 -8 5 8 10 13 11 10 0 -3 2 -15 5 -27 3 -20 1 -21 -21 -13 -14 5
-31 7 -39 4 -20 -8 -25 28 -6 43 24 19 40 15 40 -9z m70 8 c8 1 17 3 20 4 3 1
19 4 35 6 22 4 27 2 19 -6 -6 -6 -29 -14 -51 -17 -30 -4 -42 -1 -53 13 -13 17
-13 18 0 9 8 -6 22 -10 30 -9z m-62 -72 c31 -22 27 -38 -14 -57 -48 -23 -74
-14 -74 24 0 18 4 28 10 24 6 -3 10 -2 10 4 0 8 11 13 40 20 3 0 16 -6 28 -15z
m225 7 c35 -14 41 -48 12 -77 -22 -22 -55 -24 -55 -3 0 5 -5 9 -11 9 -12 0
-39 25 -39 36 0 15 34 44 51 44 10 0 29 -4 42 -9z m-159 -39 c2 -4 -4 -8 -14
-8 -10 0 -16 4 -14 8 3 4 9 8 14 8 5 0 11 -4 14 -8z"/>
<path d="M280 465 c0 -29 28 -82 51 -99 36 -25 92 -21 128 10 31 26 43 61 17
51 -7 -3 -51 8 -97 24 -96 34 -99 34 -99 14z m70 -37 c11 -12 20 -26 20 -32 0
-5 3 -6 6 -3 4 4 1 14 -7 24 -13 15 -12 16 6 9 11 -4 32 -10 48 -13 32 -6 35
-18 8 -33 -39 -20 -98 6 -114 53 -9 24 8 21 33 -5z"/>
<path d="M400 390 c-8 -5 -10 -10 -5 -10 6 0 17 5 25 10 8 5 11 10 5 10 -5 0
-17 -5 -25 -10z"/>
<path d="M520 240 c0 -5 7 -10 15 -10 8 0 15 5 15 10 0 6 -7 10 -15 10 -8 0
-15 -4 -15 -10z"/>
<path d="M263 280 c-1 -11 2 -22 8 -25 5 -4 8 3 6 14 -4 28 -12 34 -14 11z"/>
</g>
</svg>
